<svg xmlns="http://www.w3.org/2000/svg" width="23" height="17" viewBox="0 0 23 17">
    <path fill="#575757" fill-rule="evenodd"
          d="M1.5,8.5 L1.5,8.5 C1.5,9.3269043 7.75087738,14.8324404 7.75087738,14.8324404 C8.16237545,15.2003216 8.94851999,15.5 9.50179743,15.5 L18.9985918,15.5 C20.1010308,15.5 21,14.6052771 21,13.5015806 L21,3.49841943 C21,2.39706013 20.103939,1.5 18.9985918,1.5 L9.50179743,1.5 C8.94488162,1.5 8.16757343,1.7962155 7.75750448,2.16161585 C7.75750448,2.16161585 1.5,7.6730957 1.5,8.5 L1.5,8.5 Z M18.9985918,0 C20.9313278,0 22.5,1.56759503 22.5,3.49841943 L22.5,13.5015806 C22.5,15.4335422 20.9296248,17 18.9985918,17 L9.50179743,17 C8.57990508,17 7.43778844,16.5645761 6.75945214,15.9580851 L6.67839283,15.8864672 C6.62798572,15.8418336 6.56305429,15.7842006 6.48491195,15.7146374 C6.26873896,15.5221978 6.02808165,15.3065626 5.76900349,15.0726643 C5.02829795,14.4039481 4.28735434,13.7219481 3.59408764,13.0654902 C3.46244418,12.9408363 3.33355308,12.8180672 3.20761391,12.6973425 C0.845365742,10.4329023 0.0527937007,9.57037181 0.00258028478,8.60074963 L0,8.5 C0,7.48730558 0.764361207,6.64473174 3.21101137,4.2995804 C3.33693671,4.17887905 3.46580983,4.05613549 3.59743162,3.93150911 C4.29141361,3.27441072 5.03312522,2.59172228 5.77459896,1.92231716 C6.03394609,1.68817766 6.27485306,1.47231855 6.49124987,1.27967816 C6.62162083,1.16361956 6.71525603,1.08073517 6.75959465,1.04171586 C7.44571144,0.430337443 8.57862422,0 9.50179743,0 L18.9985918,0 Z M10.7762755,4.96561535 C10.4800633,4.66940309 10.0073593,4.67157288 9.71446609,4.96446609 L9.71446609,4.96446609 L9.64140015,5.04905724 C9.42240043,5.34397817 9.44877177,5.75943195 9.71561535,6.02627553 L9.71561535,6.02627553 L12.189,8.5 L9.71561535,10.9737245 C9.44633148,11.2430084 9.42364434,11.6581531 9.6417999,11.9514635 L9.71446609,12.0355339 L9.79905724,12.1085999 C10.0939782,12.3275996 10.5094319,12.3012282 10.7762755,12.0343846 L10.7762755,12.0343846 L13.25,9.561 L15.7237245,12.0343846 C15.9930084,12.3036685 16.4081531,12.3263557 16.7014635,12.1082001 L16.7855339,12.0355339 L16.8585999,11.9509428 C17.0775996,11.6560218 17.0512282,11.2405681 16.7843846,10.9737245 L16.7843846,10.9737245 L14.311,8.5 L16.7843846,6.02627553 C17.0536685,5.75699165 17.0763557,5.34184688 16.8582001,5.04853648 L16.7855339,4.96446609 L16.7009428,4.89140015 C16.4060218,4.67240043 15.9905681,4.69877177 15.7237245,4.96561535 L15.7237245,4.96561535 L13.25,7.439 Z"/>
</svg>
