<?xml version="1.0" encoding="UTF-8"?>
<svg width="20px" height="20px" viewBox="0 0 20 20" version="1.1" xmlns="http://www.w3.org/2000/svg"
     xmlns:xlink="http://www.w3.org/1999/xlink">
    <title>营销号编辑</title>
    <g id="【微信小程序】信用卡增加热门活动" stroke="none" stroke-width="1" fill="none" fill-rule="evenodd">
        <g id="我的" transform="translate(-199.000000, -118.000000)">
            <g id="编组-3" transform="translate(0.000000, 65.000000)">
                <g id="营销号编辑" transform="translate(199.000000, 53.000000)">
                    <g id="编组-6">
                        <rect id="矩形" x="0" y="0" width="20" height="20"></rect>
                        <path d="M11,3 L11,4 L4,4 L4,16 L16,16 L16,9 L17,9 L17,17 L3,17 L3,3 L11,3 Z M12,13 L12,14 L8,14 L8,13 L12,13 Z M12.7945487,4.91489929 L14.9158691,7.03621964 L10.4964517,11.455637 L7.2437136,12.8496676 C7.14218764,12.8931788 7.02461186,12.8461484 6.98110073,12.7446225 C6.95953941,12.6943127 6.95953941,12.6373645 6.98110073,12.5870548 L8.37513134,9.33431668 L12.7945487,4.91489929 Z M15.6229758,3.50068573 L16.3300826,4.20779251 C16.7206069,4.5983168 16.7206069,5.23148178 16.3300826,5.62200608 L15.6229758,6.32911286 L13.5016555,4.20779251 L14.2087623,3.50068573 C14.5992866,3.11016144 15.2324516,3.11016144 15.6229758,3.50068573 Z"
                              id="形状结合" fill="#FF8401" fill-rule="nonzero"></path>
                    </g>
                </g>
            </g>
        </g>
    </g>
</svg>