<?xml version="1.0" encoding="UTF-8"?>
<svg width="30px" height="42px" viewBox="0 0 30 42" version="1.1" xmlns="http://www.w3.org/2000/svg"
     xmlns:xlink="http://www.w3.org/1999/xlink">
    <title>徽章</title>
    <defs>
        <linearGradient x1="50%" y1="0%" x2="50%" y2="100%" id="linearGradient-1">
            <stop stop-color="#FFA440" offset="0%"></stop>
            <stop stop-color="#FFC732" offset="100%"></stop>
        </linearGradient>
        <linearGradient x1="50%" y1="0%" x2="50%" y2="100%" id="linearGradient-2">
            <stop stop-color="#FFA440" offset="0%"></stop>
            <stop stop-color="#FFC732" offset="100%"></stop>
        </linearGradient>
        <linearGradient x1="50%" y1="0%" x2="50%" y2="100%" id="linearGradient-3">
            <stop stop-color="#FFBB3B" offset="0%"></stop>
            <stop stop-color="#FFD077" offset="100%"></stop>
        </linearGradient>
        <linearGradient x1="19.6798543%" y1="7.97616796%" x2="84.7908796%" y2="86.6920745%" id="linearGradient-4">
            <stop stop-color="#FFF69B" offset="0%"></stop>
            <stop stop-color="#FFE127" offset="50.2500522%"></stop>
            <stop stop-color="#FFDF88" offset="100%"></stop>
        </linearGradient>
        <linearGradient x1="19.6798543%" y1="7.97616796%" x2="84.7908796%" y2="86.6920745%" id="linearGradient-5">
            <stop stop-color="#FFF4AC" offset="0%"></stop>
            <stop stop-color="#FFB13E" offset="100%"></stop>
        </linearGradient>
        <circle id="path-6" cx="15" cy="21" r="12"></circle>
        <filter x="-4.2%" y="-4.2%" width="108.3%" height="108.3%" filterUnits="objectBoundingBox" id="filter-7">
            <feGaussianBlur stdDeviation="0.5" in="SourceAlpha" result="shadowBlurInner1"></feGaussianBlur>
            <feOffset dx="1" dy="1" in="shadowBlurInner1" result="shadowOffsetInner1"></feOffset>
            <feComposite in="shadowOffsetInner1" in2="SourceAlpha" operator="arithmetic" k2="-1" k3="1"
                         result="shadowInnerInner1"></feComposite>
            <feColorMatrix values="0 0 0 0 0.999207428   0 0 0 0 0.688058789   0 0 0 0 0.208371305  0 0 0 1 0"
                           type="matrix" in="shadowInnerInner1"></feColorMatrix>
        </filter>
        <linearGradient x1="50%" y1="31.1085602%" x2="50%" y2="126.062694%" id="linearGradient-8">
            <stop stop-color="#FFF9DB" offset="0%"></stop>
            <stop stop-color="#FFEB7C" offset="100%"></stop>
        </linearGradient>
        <path d="M16.6976536,15.7709615 C17.3357692,16.9351901 17.0272987,17.9632408 16.8949463,18.6285594 C16.7625939,19.2938781 16.3524785,20.2576565 15.99248,20.6757477 C15.5128349,21.2322481 15.3871878,21.9055208 16.1248324,22.2456629 C17.3996507,22.5969358 18.9307033,19.9627017 18.1754178,17.3342098 L18.1754178,17.3011188 C20.0452925,19.0208977 20.9872942,20.9143891 21,22.9822642 C21,23.0783552 20.9752943,23.1722189 20.9668237,23.268628 C20.6682367,26.571999 17.5327256,28 15.3423761,28 C13.1516791,28 8.33616931,27.2630904 9.07663136,21.7311823 C9.3918071,19.7279032 11.3477986,18.5620892 12.3550831,17.5127298 C12.9197861,16.9240925 13.6810771,16.2097743 14.677421,14 C15.7270633,14.4896822 16.3637726,15.1537286 16.6979955,15.7709963 L16.6976536,15.7709615 Z"
              id="path-9"></path>
        <filter x="-41.7%" y="-28.6%" width="183.3%" height="171.4%" filterUnits="objectBoundingBox" id="filter-10">
            <feOffset dx="0" dy="1" in="SourceAlpha" result="shadowOffsetOuter1"></feOffset>
            <feGaussianBlur stdDeviation="1.5" in="shadowOffsetOuter1" result="shadowBlurOuter1"></feGaussianBlur>
            <feColorMatrix values="0 0 0 0 0.983695652   0 0 0 0 0.629941788   0 0 0 0 0.12088135  0 0 0 1 0"
                           type="matrix" in="shadowBlurOuter1"></feColorMatrix>
        </filter>
    </defs>
    <g id="【微信小程序】线下信用卡预约" stroke="none" stroke-width="1" fill="none" fill-rule="evenodd">
        <g id="0_信用卡列表备份-8" transform="translate(-313.000000, -367.000000)">
            <g id="徽章" transform="translate(313.000000, 367.000000)">
                <ellipse id="椭圆形" fill="#D8D8D8" opacity="0.263555618" cx="15" cy="40.5" rx="13" ry="1.5"></ellipse>
                <polygon id="路径-10" fill="#FD9009" points="6 0 3 2 7 2"></polygon>
                <polygon id="路径-9" fill="url(#linearGradient-1)"
                         points="6 14 6 3.9829251e-14 10 3.9829251e-14 10 7"></polygon>
                <polygon id="路径-9备份" fill="url(#linearGradient-2)"
                         points="13 8 13 3.793262e-14 17 3.793262e-14 17 8"></polygon>
                <polygon id="路径-9备份-3" fill="url(#linearGradient-3)"
                         points="10 8 10 3.793262e-14 13 3.793262e-14 13 8"></polygon>
                <polygon id="路径-9备份-4" fill="url(#linearGradient-3)"
                         points="17 8 17 3.793262e-14 20 3.793262e-14 20 8"></polygon>
                <polygon id="路径-9备份-2" fill="url(#linearGradient-1)"
                         transform="translate(22.000000, 7.000000) scale(-1, 1) translate(-22.000000, -7.000000) "
                         points="20 14 20 3.9829251e-14 24 3.9829251e-14 24 7"></polygon>
                <circle id="椭圆形" fill="url(#linearGradient-4)" cx="15" cy="21" r="15"></circle>
                <g id="椭圆形">
                    <use fill="url(#linearGradient-5)" fill-rule="evenodd" xlink:href="#path-6"></use>
                    <use fill="black" fill-opacity="1" filter="url(#filter-7)" xlink:href="#path-6"></use>
                </g>
                <g id="路径" fill-rule="nonzero">
                    <use fill="black" fill-opacity="1" filter="url(#filter-10)" xlink:href="#path-9"></use>
                    <use fill="url(#linearGradient-8)" xlink:href="#path-9"></use>
                </g>
                <polygon id="路径" fill="#FFFBEA" fill-rule="nonzero"
                         points="19.3151005 17 20.4006068 16.1143621 22 16.0143475 20.8189037 15.1995071 20.6862356 14 19.5994488 14.88616 18 14.9856525 19.1810963 15.8005138"></polygon>
                <polygon id="路径" fill="#FFFBEA" fill-rule="nonzero"
                         points="7.74783172 21 8.03302263 19.8825298 9 19.2533251 7.88248928 18.9681817 7.25214336 18 6.96700229 19.1186914 6 19.7478712 7.11746087 20.0330395"></polygon>
                <polygon id="路径" fill="#FFFBEA" fill-rule="nonzero"
                         points="9.74889966 17 10.0327213 16.2544066 11 15.8351049 9.88205219 15.6443407 9.25336771 15 8.96732317 15.7448225 8 16.1648951 9.11808118 16.3549774"></polygon>
            </g>
        </g>
    </g>
</svg>