<?xml version="1.0" encoding="UTF-8"?>
<svg width="14px" height="14px" viewBox="0 0 14 14" version="1.1" xmlns="http://www.w3.org/2000/svg"
     xmlns:xlink="http://www.w3.org/1999/xlink">
    <title>头像刷新</title>
    <g id="【微信小程序】信用卡增加热门活动" stroke="none" stroke-width="1" fill="none" fill-rule="evenodd">
        <g id="我的" transform="translate(-60.000000, -125.000000)">
            <g id="编组-3" transform="translate(0.000000, 65.000000)">
                <g id="头像刷新" transform="translate(60.000000, 60.000000)">
                    <g id="编组-10">
                        <circle id="椭圆形" fill-opacity="0.4" fill="#000000" cx="7" cy="7" r="7"></circle>
                        <path d="M2,7.1339746 L4.29903811,8.1160254 L3.35896189,8.659 C3.99588217,10.0444994 5.38635652,11 7,11 C8.94029633,11 10.5579253,9.61849673 10.9229067,7.78547033 L11.9035605,7.98220405 C11.4471912,10.2733049 9.42524122,12 7,12 C5.01261119,12 3.29603856,10.8404981 2.48986668,9.16107891 L1.70096189,9.6160254 L2,7.1339746 Z M7,2 C8.98732724,2 10.7038551,3.15943005 11.5100584,4.83876502 L12.2990381,4.3839746 L12,6.8660254 L9.70096189,5.8839746 L10.6399619,5.341 C10.0047425,3.9559299 8.61400593,3 7,3 C5.05934759,3 3.441481,4.38201038 3.07689247,6.2155389 L2.09624048,6.01879574 C2.55222062,3.72719747 4.57440602,2 7,2 Z"
                              id="形状结合" fill="#FFFFFF" fill-rule="nonzero"></path>
                    </g>
                </g>
            </g>
        </g>
    </g>
</svg>