<svg width="22" height="22" viewBox="0 0 22 22" xmlns="http://www.w3.org/2000/svg">
    <g fill="#FFF" fill-rule="nonzero">
        <path d="M4.974 4.975A6.733 6.733 0 003.12 11c.4-1.82 1.343-3.599 2.812-5.069C7.402 4.461 9.18 3.518 11 3.117a6.738 6.738 0 00-6.026 1.858z"/>
        <path d="M21.258 17.663l-2.615-2.614a2.535 2.535 0 00-1.993-.734 9.135 9.135 0 00-1.064-11.64 9.13 9.13 0 00-12.912 0 9.134 9.134 0 000 12.914c3.167 3.168 8.08 3.52 11.638 1.061a2.54 2.54 0 00.733 1.994l2.615 2.615c.99.988 2.607.988 3.595 0a2.546 2.546 0 00.003-3.596zm-6.732-3.137a7.624 7.624 0 01-10.785 0 7.627 7.627 0 010-10.788 7.628 7.628 0 0110.785 10.788z"/>
    </g>
</svg>