<?xml version="1.0" encoding="UTF-8"?>
<svg width="375px" height="70px" viewBox="0 0 375 70" version="1.1" xmlns="http://www.w3.org/2000/svg"
     xmlns:xlink="http://www.w3.org/1999/xlink">
    <title>申请信用卡_进度2</title>
    <defs>
        <linearGradient x1="89.2724153%" y1="50%" x2="0%" y2="50%" id="linearGradient-1">
            <stop stop-color="#FFFFFF" offset="0%"></stop>
            <stop stop-color="#221715" offset="100%"></stop>
        </linearGradient>
    </defs>
    <g id="页面-1" stroke="none" stroke-width="1" fill="none" fill-rule="evenodd">
        <g id="申请信用卡-新客户-02" transform="translate(0.000000, -64.000000)">
            <g id="申请信用卡_进度2" transform="translate(0.000000, 64.000000)">
                <polygon id="矩形" fill="#FFFFFF" points="0 0 375 0 375 70 0 70"></polygon>
                <text id="个人信息" font-family="PingFangSC-Regular, PingFang SC" font-size="12" font-weight="normal"
                      line-spacing="16" letter-spacing="0.4" fill="#221715">
                    <tspan x="24" y="58">个人信息</tspan>
                </text>
                <text id="工作信息" font-family="PingFangSC-Regular, PingFang SC" font-size="12" font-weight="normal"
                      line-spacing="16" letter-spacing="0.4" fill="#221715">
                    <tspan x="114" y="58">工作信息</tspan>
                </text>
                <text id="联系人信息" font-family="PingFangSC-Regular, PingFang SC" font-size="12" font-weight="normal"
                      line-spacing="16" letter-spacing="0.4" fill="#AAAAAA">
                    <tspan x="198" y="58">联系人信息</tspan>
                </text>
                <text id="卡片信息" font-family="PingFangSC-Regular, PingFang SC" font-size="12" font-weight="normal"
                      line-spacing="16" letter-spacing="0.4" fill="#AAAAAA">
                    <tspan x="294" y="58">卡片信息</tspan>
                </text>
                <rect id="矩形" fill="#EDEDED" x="53" y="23" width="262" height="5"></rect>
                <polygon id="矩形" fill="url(#linearGradient-1)" points="139 23 229 23 229 28 139 28"></polygon>
                <circle id="椭圆形" fill="#221715" cx="48.5" cy="25.5" r="11.5"></circle>
                <circle id="椭圆形-copy" fill="#221715" cx="138.5" cy="25.5" r="11.5"></circle>
                <rect id="矩形" fill="#221715" x="57" y="23" width="73" height="5"></rect>
                <circle id="椭圆形-copy-2" fill="#EDEDED" cx="228.5" cy="25.5" r="11.5"></circle>
                <circle id="椭圆形-copy-3" fill="#EDEDED" cx="318.5" cy="25.5" r="11.5"></circle>
                <polygon id="1" fill="#FFFFFF" fill-rule="nonzero"
                         points="49.8671875 31 49.8671875 21.0332031 49.6621094 21.0332031 46.0322266 22.5166016 46.0322266 24.1298828 47.9257812 23.3984375 47.9257812 31"></polygon>
                <path d="M141.973633,31 L141.973633,29.3935547 L138.589844,29.3935547 L139.868164,27.5683594 C140.159831,27.2220052 140.421875,26.8904622 140.654297,26.5737305 C140.886719,26.2569987 141.083822,25.9436849 141.245605,25.6337891 C141.407389,25.3238932 141.531576,25.0128581 141.618164,24.7006836 C141.704753,24.3885091 141.748047,24.0660807 141.748047,23.7333984 C141.748047,23.2958984 141.687663,22.9016927 141.566895,22.5507812 C141.446126,22.1998698 141.267253,21.9036458 141.030273,21.6621094 C140.793294,21.4205729 140.500488,21.2348633 140.151855,21.1049805 C139.803223,20.9750977 139.401042,20.9101562 138.945312,20.9101562 C138.480469,20.9101562 138.062337,20.9967448 137.690918,21.1699219 C137.319499,21.343099 137.005046,21.5777995 136.747559,21.8740234 C136.490072,22.1702474 136.291829,22.5166016 136.152832,22.9130859 C136.013835,23.3095703 135.944336,23.7333984 135.944336,24.1845703 L135.944336,24.1845703 L137.885742,24.1845703 C137.885742,23.9475911 137.90625,23.7265625 137.947266,23.5214844 C137.988281,23.3164062 138.052083,23.1398112 138.138672,22.9916992 C138.22526,22.8435872 138.332357,22.7273763 138.459961,22.6430664 C138.587565,22.5587565 138.737956,22.5166016 138.911133,22.5166016 C139.198242,22.5166016 139.418132,22.6419271 139.570801,22.8925781 C139.72347,23.1432292 139.799805,23.4895833 139.799805,23.9316406 C139.799805,24.077474 139.783854,24.2278646 139.751953,24.3828125 C139.720052,24.5377604 139.665365,24.7063802 139.587891,24.8886719 C139.510417,25.0709635 139.407878,25.2703451 139.280273,25.4868164 C139.152669,25.7032878 138.993164,25.9436849 138.801758,26.2080078 L138.801758,26.2080078 L136.108398,29.6328125 L136.108398,31 L141.973633,31 Z"
                      id="2" fill="#FFFFFF" fill-rule="nonzero"></path>
            </g>
        </g>
    </g>
</svg>