<?xml version="1.0" encoding="UTF-8"?>
<svg width="375px" height="70px" viewBox="0 0 375 70" version="1.1" xmlns="http://www.w3.org/2000/svg"
     xmlns:xlink="http://www.w3.org/1999/xlink">
    <title>申请信用卡_进度3</title>
    <defs>
        <linearGradient x1="89.2724153%" y1="50%" x2="0%" y2="50%" id="linearGradient-1">
            <stop stop-color="#FFFFFF" offset="0%"></stop>
            <stop stop-color="#221715" offset="100%"></stop>
        </linearGradient>
    </defs>
    <g id="页面-1" stroke="none" stroke-width="1" fill="none" fill-rule="evenodd">
        <g id="申请信用卡-新客户-03" transform="translate(0.000000, -64.000000)">
            <g id="申请信用卡_进度3" transform="translate(0.000000, 64.000000)">
                <polygon id="矩形" fill="#FFFFFF" points="0 0 375 0 375 70 0 70"></polygon>
                <text id="个人信息" font-family="PingFangSC-Regular, PingFang SC" font-size="12" font-weight="normal"
                      line-spacing="16" letter-spacing="0.4" fill="#221715">
                    <tspan x="24" y="58">个人信息</tspan>
                </text>
                <text id="工作信息" font-family="PingFangSC-Regular, PingFang SC" font-size="12" font-weight="normal"
                      line-spacing="16" letter-spacing="0.4" fill="#221715">
                    <tspan x="114" y="58">工作信息</tspan>
                </text>
                <text id="联系人信息" font-family="PingFangSC-Regular, PingFang SC" font-size="12" font-weight="normal"
                      line-spacing="16" letter-spacing="0.4" fill="#221715">
                    <tspan x="198" y="58">联系人信息</tspan>
                </text>
                <text id="卡片信息" font-family="PingFangSC-Regular, PingFang SC" font-size="12" font-weight="normal"
                      line-spacing="16" letter-spacing="0.4" fill="#AAAAAA">
                    <tspan x="294" y="58">卡片信息</tspan>
                </text>
                <rect id="矩形" fill="#EDEDED" x="53" y="23" width="262" height="5"></rect>
                <polygon id="矩形" fill="url(#linearGradient-1)" points="229 23 319 23 319 28 229 28"></polygon>
                <circle id="椭圆形" fill="#221715" cx="48.5" cy="25.5" r="11.5"></circle>
                <circle id="椭圆形-copy" fill="#221715" cx="138.5" cy="25.5" r="11.5"></circle>
                <polygon id="矩形" fill="#221715" points="57 23 229 23 229 28 57 28"></polygon>
                <circle id="椭圆形-copy-2" fill="#221715" cx="228.5" cy="25.5" r="11.5"></circle>
                <circle id="椭圆形-copy-3" fill="#EDEDED" cx="318.5" cy="25.5" r="11.5"></circle>
                <polygon id="1" fill="#FFFFFF" fill-rule="nonzero"
                         points="49.8671875 31 49.8671875 21.0332031 49.6621094 21.0332031 46.0322266 22.5166016 46.0322266 24.1298828 47.9257812 23.3984375 47.9257812 31"></polygon>
                <path d="M141.973633,31 L141.973633,29.3935547 L138.589844,29.3935547 L139.868164,27.5683594 C140.159831,27.2220052 140.421875,26.8904622 140.654297,26.5737305 C140.886719,26.2569987 141.083822,25.9436849 141.245605,25.6337891 C141.407389,25.3238932 141.531576,25.0128581 141.618164,24.7006836 C141.704753,24.3885091 141.748047,24.0660807 141.748047,23.7333984 C141.748047,23.2958984 141.687663,22.9016927 141.566895,22.5507812 C141.446126,22.1998698 141.267253,21.9036458 141.030273,21.6621094 C140.793294,21.4205729 140.500488,21.2348633 140.151855,21.1049805 C139.803223,20.9750977 139.401042,20.9101562 138.945312,20.9101562 C138.480469,20.9101562 138.062337,20.9967448 137.690918,21.1699219 C137.319499,21.343099 137.005046,21.5777995 136.747559,21.8740234 C136.490072,22.1702474 136.291829,22.5166016 136.152832,22.9130859 C136.013835,23.3095703 135.944336,23.7333984 135.944336,24.1845703 L135.944336,24.1845703 L137.885742,24.1845703 C137.885742,23.9475911 137.90625,23.7265625 137.947266,23.5214844 C137.988281,23.3164062 138.052083,23.1398112 138.138672,22.9916992 C138.22526,22.8435872 138.332357,22.7273763 138.459961,22.6430664 C138.587565,22.5587565 138.737956,22.5166016 138.911133,22.5166016 C139.198242,22.5166016 139.418132,22.6419271 139.570801,22.8925781 C139.72347,23.1432292 139.799805,23.4895833 139.799805,23.9316406 C139.799805,24.077474 139.783854,24.2278646 139.751953,24.3828125 C139.720052,24.5377604 139.665365,24.7063802 139.587891,24.8886719 C139.510417,25.0709635 139.407878,25.2703451 139.280273,25.4868164 C139.152669,25.7032878 138.993164,25.9436849 138.801758,26.2080078 L138.801758,26.2080078 L136.108398,29.6328125 L136.108398,31 L141.973633,31 Z"
                      id="2" fill="#FFFFFF" fill-rule="nonzero"></path>
                <path d="M228.788086,31.1367188 C229.221029,31.1367188 229.624349,31.0717773 229.998047,30.9418945 C230.371745,30.8120117 230.695312,30.6228841 230.96875,30.3745117 C231.242188,30.1261393 231.45752,29.8196615 231.614746,29.4550781 C231.771973,29.0904948 231.850586,28.6757812 231.850586,28.2109375 C231.850586,27.6640625 231.735514,27.1901042 231.505371,26.7890625 C231.275228,26.3880208 230.925456,26.0872396 230.456055,25.8867188 C230.661133,25.7773438 230.842285,25.644043 230.999512,25.4868164 C231.156738,25.3295898 231.290039,25.1586914 231.399414,24.9741211 C231.508789,24.7895508 231.59196,24.5935872 231.648926,24.3862305 C231.705892,24.1788737 231.734375,23.9658203 231.734375,23.7470703 C231.734375,23.2822266 231.662598,22.8732096 231.519043,22.5200195 C231.375488,22.1668294 231.174967,21.8706055 230.91748,21.6313477 C230.659993,21.3920898 230.351237,21.2120768 229.991211,21.0913086 C229.631185,20.9705404 229.234701,20.9101562 228.801758,20.9101562 C228.409831,20.9101562 228.044108,20.9750977 227.70459,21.1049805 C227.365072,21.2348633 227.069987,21.4171549 226.819336,21.6518555 C226.568685,21.886556 226.370443,22.1713867 226.224609,22.5063477 C226.078776,22.8413086 226.005859,23.2138672 226.005859,23.6240234 L226.005859,23.6240234 L227.94043,23.6240234 C227.94043,23.4508464 227.965495,23.2958984 228.015625,23.1591797 C228.065755,23.0224609 228.131836,22.90625 228.213867,22.8105469 C228.295898,22.7148438 228.392741,22.6419271 228.504395,22.5917969 C228.616048,22.5416667 228.733398,22.5166016 228.856445,22.5166016 C229.011393,22.5166016 229.148112,22.5485026 229.266602,22.6123047 C229.385091,22.6761068 229.484212,22.7638346 229.563965,22.8754883 C229.643717,22.9871419 229.702962,23.1193034 229.741699,23.2719727 C229.780436,23.4246419 229.799805,23.5921224 229.799805,23.7744141 C229.799805,24.1891276 229.716634,24.5206706 229.550293,24.769043 C229.383952,25.0174154 229.123047,25.1416016 228.767578,25.1416016 L228.767578,25.1416016 L227.831055,25.1416016 L227.831055,26.7001953 L228.767578,26.7001953 C229.132161,26.7001953 229.415853,26.8152669 229.618652,27.0454102 C229.821452,27.2755534 229.922852,27.6526693 229.922852,28.1767578 C229.922852,28.3818359 229.897786,28.5675456 229.847656,28.7338867 C229.797526,28.9002279 229.725749,29.0426432 229.632324,29.1611328 C229.5389,29.2796224 229.426107,29.3707682 229.293945,29.4345703 C229.161784,29.4983724 229.011393,29.5302734 228.842773,29.5302734 C228.69694,29.5302734 228.563639,29.4983724 228.442871,29.4345703 C228.322103,29.3707682 228.218424,29.2830404 228.131836,29.1713867 C228.045247,29.0597331 227.976888,28.9275716 227.926758,28.7749023 C227.876628,28.6222331 227.851562,28.4547526 227.851562,28.2724609 L227.851562,28.2724609 L225.916992,28.2724609 C225.916992,28.7646484 225.999023,29.1896159 226.163086,29.5473633 C226.327148,29.9051107 226.54248,30.202474 226.809082,30.4394531 C227.075684,30.6764323 227.381022,30.851888 227.725098,30.9658203 C228.069173,31.0797526 228.423503,31.1367188 228.788086,31.1367188 Z"
                      id="3" fill="#FFFFFF" fill-rule="nonzero"></path>
            </g>
        </g>
    </g>
</svg>