<?xml version="1.0" encoding="UTF-8"?>
<svg width="10px" height="9px" viewBox="0 0 10 9" version="1.1" xmlns="http://www.w3.org/2000/svg"
     xmlns:xlink="http://www.w3.org/1999/xlink">
    <title>权益</title>
    <defs>
        <linearGradient x1="77.7816813%" y1="9.54717064%" x2="50%" y2="90.4528294%" id="linearGradient-1">
            <stop stop-color="#909090" offset="0%"></stop>
            <stop stop-color="#575757" offset="100%"></stop>
        </linearGradient>
    </defs>
    <g id="【微信小程序】线下信用卡预约" stroke="none" stroke-width="1" fill="none" fill-rule="evenodd">
        <g id="0_信用卡列表备份-8" transform="translate(-181.000000, -437.000000)" fill-rule="nonzero">
            <g id="编组-2" transform="translate(15.000000, 369.000000)">
                <g id="权益" transform="translate(166.000000, 68.000000)">
                    <path d="M9.89297659,3.26751592 L8.39464883,0.479235669 C8.25195095,0.185732484 7.93088071,0.00229299363 7.57413601,0.00229299363 L2.43701226,0.00229299363 C2.08026756,0.00229299363 1.75919732,0.185732484 1.61649944,0.479235669 L0.118171683,3.26751592 C-0.0602006689,3.59770701 -0.0245261984,4.00127389 0.225195095,4.29477707 L4.00668896,8.55057325 C4.50613155,9.13757962 5.43366778,9.13757962 5.93311037,8.55057325 L9.71460424,4.29477707 C10.0356745,4.00127389 10.0713489,3.59770701 9.89297659,3.26751592 L9.89297659,3.26751592 Z M7.78818283,4.07464968 L7.2173913,4.69834395 C6.04013378,5.98242038 4.00668896,5.98242038 2.82943144,4.69834395 L2.25863991,4.07464968 C2.11594203,3.89121019 2.11594203,3.6343949 2.29431438,3.45095541 C2.47268673,3.30420382 2.7580825,3.30420382 2.90078038,3.48764331 L3.43589744,4.07464968 C4.29208473,4.99184713 5.75473802,4.99184713 6.61092531,4.07464968 L7.14604236,3.48764331 C7.28874025,3.30420382 7.57413601,3.30420382 7.75250836,3.45095541 C7.93088071,3.59770701 7.93088071,3.89121019 7.78818283,4.07464968 L7.78818283,4.07464968 Z"
                          id="a" fill="url(#linearGradient-1)"></path>
                    <path d="M7.50487815,3.72955493 L6.97741944,4.3532492 C5.88953584,5.63732563 4.01046416,5.63732563 2.92258056,4.3532492 L2.39512185,3.72955493 C2.26325717,3.54611544 2.26325717,3.28930015 2.42808802,3.10586066 C2.59291886,2.95910907 2.85664822,2.95910907 2.9885129,3.14254856 L3.48300545,3.72955493 C4.27419352,4.64675238 5.62580648,4.64675238 6.41699455,3.72955493 L6.9114871,3.14254856 C7.04335178,2.95910907 7.30708114,2.95910907 7.47191198,3.10586066 C7.63674283,3.25261225 7.63674283,3.54611544 7.50487815,3.72955493 L7.50487815,3.72955493 Z"
                          id="a-path" fill="#FFFFFF"></path>
                </g>
            </g>
        </g>
    </g>
</svg>