<svg xmlns="http://www.w3.org/2000/svg" width="24" height="24" viewBox="0 0 24 24">
    <path fill="#ABABAB"
          d="M0,14.9981231 L0.0187456057,11.600976 C0.0187456057,11.600976 0.423650689,11.1918168 0.0168710451,11.5990991 L8.01937013,3.58671171 C8.28743229,3.31831832 8.7242049,3.31831832 8.9903925,3.58671171 L11.4141993,6.01351351 C11.6822615,6.28190691 11.6822615,6.71921922 11.4141993,6.98573574 L3.4135748,15 L0,14.9981231 Z M14.8015303,3.5960961 L13.2044047,5.19707207 C12.9419662,5.45983483 12.5108173,5.45983483 12.2465042,5.19707207 L9.80957547,2.75525526 C9.54713699,2.49249249 9.54713699,2.06081081 9.80957547,1.79617117 L11.4067011,0.197072072 C11.6691396,-0.0656906907 12.1002885,-0.0656906907 12.3646015,0.197072072 L14.8034048,2.63888889 C15.0658433,2.90165165 15.0658433,3.33333333 14.8015303,3.5960961 Z"
          transform="translate(4.5 4.5)"/>
</svg>
